<svg height="10in" viewBox="0 0 1000 1000" width="10in" xmlns="http://www.w3.org/2000/svg">
<path d="M0,0 L781,816 L777,803 z" fill="none" stroke="black" stroke-width="2"/>
<path d="M0,0 L706,576 L222,921 z" fill="none" stroke="black" stroke-width="2"/>
<path d="M0,0 L427,784 L426,426 z" fill="none" stroke="black" stroke-width="2"/>
<path d="M0,0 L228,290 L589,452 z" fill="none" stroke="black" stroke-width="2"/>
<path d="M0,1 L536,620 L213,298 z" fill="none" stroke="black" stroke-width="2"/>
<path d="M0,0 L996,57 L784,370 z" fill="none" stroke="black" stroke-width="2"/>
<path d="M0,0 L928,536 L18,432 z" fill="none" stroke="black" stroke-width="2"/>
<path d="M0,0 L934,860 L367,325 z" fill="none" stroke="black" stroke-width="2"/>
<path d="M0,0 L696,435 L140,342 z" fill="none" stroke="black" stroke-width="2"/>
<path d="M0,1 L38,662 L491,47 z" fill="none" stroke="black" stroke-width="2"/>
<path d="M0,0 L407,605 L105,469 z" fill="none" stroke="black" stroke-width="2"/>
<path d="M0,0 L974,142 L776,915 z" fill="none" stroke="black" stroke-width="2"/>
<path d="M0,0 L664,892 L22,361 z" fill="none" stroke="black" stroke-width="2"/>
<path d="M0,0 L305,902 L126,980 z" fill="none" stroke="black" stroke-width="2"/>
<path d="M0,1 L954,764 L913,272 z" fill="none" stroke="black" stroke-width="2"/>
<path d="M0,0 L137,38 L649,459 z" fill="none" stroke="black" stroke-width="2"/>
<path d="M0,0 L682,145 L944,557 z" fill="none" stroke="black" stroke-width="2"/>
<path d="M0,0 L286,618 L8,745 z" fill="none" stroke="black" stroke-width="2"/>
<path d="M0,0 L571,234 L499,216 z" fill="none" stroke="black" stroke-width="2"/>
<path d="M0,1 L422,826 L208,331 z" fill="none" stroke="black" stroke-width="2"/>
<path d="M1,0 L372,682 L688,187 z" fill="none" stroke="black" stroke-width="2"/>
<path d="M1,0 L399,553 L710,69 z" fill="none" stroke="black" stroke-width="2"/>
<path d="M1,0 L2,654 L537,119 z" fill="none" stroke="black" stroke-width="2"/>
<path d="M1,0 L633,612 L995,282 z" fill="none" stroke="black" stroke-width="2"/>
<path d="M1,1 L107,932 L749,126 z" fill="none" stroke="black" stroke-width="2"/>
</svg>