<svg height="10in" viewBox="0 0 1000 1000" width="10in" xmlns="http://www.w3.org/2000/svg">
<path d="M197,713 L15,651 L198,188 z" fill="none" stroke="black" stroke-width="2"/>
<path d="M42,85 L26,736 L663,973 z" fill="none" stroke="black" stroke-width="2"/>
<path d="M900,569 L957,862 L774,768 z" fill="none" stroke="black" stroke-width="2"/>
<path d="M10,224 L705,544 L427,34 z" fill="none" stroke="black" stroke-width="2"/>
<path d="M802,535 L291,124 L284,717 z" fill="none" stroke="black" stroke-width="2"/>
<path d="M251,148 L309,703 L209,261 z" fill="none" stroke="black" stroke-width="2"/>
<path d="M182,314 L751,648 L597,980 z" fill="none" stroke="black" stroke-width="2"/>
<path d="M329,736 L390,48 L281,505 z" fill="none" stroke="black" stroke-width="2"/>
<path d="M893,256 L252,992 L874,543 z" fill="none" stroke="black" stroke-width="2"/>
<path d="M844,185 L848,161 L944,143 z" fill="none" stroke="black" stroke-width="2"/>
<path d="M379,833 L520,385 L546,612 z" fill="none" stroke="black" stroke-width="2"/>
<path d="M168,87 L894,183 L394,639 z" fill="none" stroke="black" stroke-width="2"/>
<path d="M857,266 L644,518 L663,880 z" fill="none" stroke="black" stroke-width="2"/>
<path d="M504,249 L29,882 L248,907 z" fill="none" stroke="black" stroke-width="2"/>
<path d="M484,543 L469,812 L619,225 z" fill="none" stroke="black" stroke-width="2"/>
<path d="M3,949 L523,225 L34,544 z" fill="none" stroke="black" stroke-width="2"/>
<path d="M643,539 L527,670 L741,57 z" fill="none" stroke="black" stroke-width="2"/>
<path d="M568,763 L334,837 L400,511 z" fill="none" stroke="black" stroke-width="2"/>
<path d="M157,859 L210,324 L101,913 z" fill="none" stroke="black" stroke-width="2"/>
<path d="M873,365 L253,937 L563,243 z" fill="none" stroke="black" stroke-width="2"/>
<path d="M466,546 L955,684 L441,923 z" fill="none" stroke="black" stroke-width="2"/>
<path d="M959,984 L83,496 L386,270 z" fill="none" stroke="black" stroke-width="2"/>
<path d="M898,427 L358,923 L911,578 z" fill="none" stroke="black" stroke-width="2"/>
<path d="M548,125 L526,165 L247,624 z" fill="none" stroke="black" stroke-width="2"/>
<path d="M663,434 L787,4 L477,739 z" fill="none" stroke="black" stroke-width="2"/>
</svg>