<svg height="10in" viewBox="0 0 1000 1000" width="10in" xmlns="http://www.w3.org/2000/svg">
<path d="M0,0 L954,716 L860,588 z" fill="none" stroke="black" stroke-width="2"/>
<path d="M0,4 L67,842 L86,679 z" fill="none" stroke="black" stroke-width="2"/>
<path d="M0,8 L183,899 L616,874 z" fill="none" stroke="black" stroke-width="2"/>
<path d="M0,12 L101,284 L92,118 z" fill="none" stroke="black" stroke-width="2"/>
<path d="M0,16 L918,35 L981,377 z" fill="none" stroke="black" stroke-width="2"/>
<path d="M4,0 L713,307 L950,777 z" fill="none" stroke="black" stroke-width="2"/>
<path d="M4,4 L782,694 L129,967 z" fill="none" stroke="black" stroke-width="2"/>
<path d="M4,8 L633,453 L663,365 z" fill="none" stroke="black" stroke-width="2"/>
<path d="M4,12 L27,694 L661,6 z" fill="none" stroke="black" stroke-width="2"/>
<path d="M4,16 L409,498 L140,81 z" fill="none" stroke="black" stroke-width="2"/>
<path d="M8,0 L408,288 L367,150 z" fill="none" stroke="black" stroke-width="2"/>
<path d="M8,4 L745,38 L866,81 z" fill="none" stroke="black" stroke-width="2"/>
<path d="M8,8 L439,193 L685,738 z" fill="none" stroke="black" stroke-width="2"/>
<path d="M8,12 L812,195 L734,172 z" fill="none" stroke="black" stroke-width="2"/>
<path d="M8,16 L9,974 L421,608 z" fill="none" stroke="black" stroke-width="2"/>
<path d="M12,0 L599,837 L880,728 z" fill="none" stroke="black" stroke-width="2"/>
<path d="M12,4 L717,875 L11,630 z" fill="none" stroke="black" stroke-width="2"/>
<path d="M12,8 L815,236 L268,236 z" fill="none" stroke="black" stroke-width="2"/>
<path d="M12,12 L45,755 L967,116 z" fill="none" stroke="black" stroke-width="2"/>
<path d="M12,16 L424,598 L106,44 z" fill="none" stroke="black" stroke-width="2"/>
<path d="M16,0 L717,674 L566,846 z" fill="none" stroke="black" stroke-width="2"/>
<path d="M16,4 L864,453 L136,941 z" fill="none" stroke="black" stroke-width="2"/>
<path d="M16,8 L335,870 L210,77 z" fill="none" stroke="black" stroke-width="2"/>
<path d="M16,12 L883,911 L358,593 z" fill="none" stroke="black" stroke-width="2"/>
<path d="M16,16 L731,37 L99,995 z" fill="none" stroke="black" stroke-width="2"/>
</svg>