<svg height="10in" viewBox="0 0 1000 1000" width="10in" xmlns="http://www.w3.org/2000/svg">
<path d="M0,0 L812,344 L484,873 z" fill="none" stroke="black" stroke-width="2"/>
<path d="M0,0 L922,818 L945,437 z" fill="none" stroke="black" stroke-width="2"/>
<path d="M0,0 L87,568 L13,850 z" fill="none" stroke="black" stroke-width="2"/>
<path d="M0,0 L365,281 L684,988 z" fill="none" stroke="black" stroke-width="2"/>
<path d="M0,1 L687,400 L662,908 z" fill="none" stroke="black" stroke-width="2"/>
<path d="M0,0 L103,22 L190,105 z" fill="none" stroke="black" stroke-width="2"/>
<path d="M0,0 L928,830 L213,683 z" fill="none" stroke="black" stroke-width="2"/>
<path d="M0,0 L88,56 L608,825 z" fill="none" stroke="black" stroke-width="2"/>
<path d="M0,0 L39,146 L720,61 z" fill="none" stroke="black" stroke-width="2"/>
<path d="M0,1 L65,464 L403,292 z" fill="none" stroke="black" stroke-width="2"/>
<path d="M0,0 L467,746 L947,166 z" fill="none" stroke="black" stroke-width="2"/>
<path d="M0,0 L896,656 L479,64 z" fill="none" stroke="black" stroke-width="2"/>
<path d="M0,0 L553,281 L992,364 z" fill="none" stroke="black" stroke-width="2"/>
<path d="M0,0 L130,901 L702,772 z" fill="none" stroke="black" stroke-width="2"/>
<path d="M0,1 L129,612 L428,862 z" fill="none" stroke="black" stroke-width="2"/>
<path d="M0,0 L563,456 L968,338 z" fill="none" stroke="black" stroke-width="2"/>
<path d="M0,0 L584,667 L104,470 z" fill="none" stroke="black" stroke-width="2"/>
<path d="M0,0 L483,805 L537,21 z" fill="none" stroke="black" stroke-width="2"/>
<path d="M0,0 L353,260 L907,975 z" fill="none" stroke="black" stroke-width="2"/>
<path d="M0,1 L723,623 L544,992 z" fill="none" stroke="black" stroke-width="2"/>
<path d="M1,0 L705,883 L24,232 z" fill="none" stroke="black" stroke-width="2"/>
<path d="M1,0 L616,250 L366,440 z" fill="none" stroke="black" stroke-width="2"/>
<path d="M1,0 L919,978 L390,336 z" fill="none" stroke="black" stroke-width="2"/>
<path d="M1,0 L711,694 L687,232 z" fill="none" stroke="black" stroke-width="2"/>
<path d="M1,1 L447,828 L54,351 z" fill="none" stroke="black" stroke-width="2"/>
</svg>