<svg height="10in" viewBox="0 0 1000 1000" width="10in" xmlns="http://www.w3.org/2000/svg">
<path d="M0,0 L61,81 L360,398 z" fill="none" stroke="black" stroke-width="2"/>
<path d="M0,0 L326,474 L72,301 z" fill="none" stroke="black" stroke-width="2"/>
<path d="M0,0 L827,710 L461,848 z" fill="none" stroke="black" stroke-width="2"/>
<path d="M0,0 L579,931 L558,122 z" fill="none" stroke="black" stroke-width="2"/>
<path d="M0,1 L482,509 L814,875 z" fill="none" stroke="black" stroke-width="2"/>
<path d="M0,0 L539,167 L319,710 z" fill="none" stroke="black" stroke-width="2"/>
<path d="M0,0 L753,857 L450,381 z" fill="none" stroke="black" stroke-width="2"/>
<path d="M0,0 L606,230 L105,729 z" fill="none" stroke="black" stroke-width="2"/>
<path d="M0,0 L522,260 L49,414 z" fill="none" stroke="black" stroke-width="2"/>
<path d="M0,1 L781,739 L279,519 z" fill="none" stroke="black" stroke-width="2"/>
<path d="M0,0 L816,720 L339,666 z" fill="none" stroke="black" stroke-width="2"/>
<path d="M0,0 L969,620 L299,145 z" fill="none" stroke="black" stroke-width="2"/>
<path d="M0,0 L533,709 L508,129 z" fill="none" stroke="black" stroke-width="2"/>
<path d="M0,0 L540,682 L216,975 z" fill="none" stroke="black" stroke-width="2"/>
<path d="M0,1 L347,633 L121,382 z" fill="none" stroke="black" stroke-width="2"/>
<path d="M0,0 L738,911 L667,448 z" fill="none" stroke="black" stroke-width="2"/>
<path d="M0,0 L87,1 L244,105 z" fill="none" stroke="black" stroke-width="2"/>
<path d="M0,0 L545,435 L37,665 z" fill="none" stroke="black" stroke-width="2"/>
<path d="M0,0 L230,326 L296,138 z" fill="none" stroke="black" stroke-width="2"/>
<path d="M0,1 L712,940 L434,326 z" fill="none" stroke="black" stroke-width="2"/>
<path d="M1,0 L225,345 L532,453 z" fill="none" stroke="black" stroke-width="2"/>
<path d="M1,0 L981,337 L324,198 z" fill="none" stroke="black" stroke-width="2"/>
<path d="M1,0 L519,977 L988,145 z" fill="none" stroke="black" stroke-width="2"/>
<path d="M1,0 L836,953 L46,595 z" fill="none" stroke="black" stroke-width="2"/>
<path d="M1,1 L905,533 L995,41 z" fill="none" stroke="black" stroke-width="2"/>
</svg>