<svg height="10in" viewBox="0 0 1000 1000" width="10in" xmlns="http://www.w3.org/2000/svg">
<path d="M517,475 L330,430 L773,44 z" fill="none" stroke="black" stroke-width="2"/>
<path d="M500,996 L429,287 L587,592 z" fill="none" stroke="black" stroke-width="2"/>
<path d="M481,121 L123,998 L777,318 z" fill="none" stroke="black" stroke-width="2"/>
<path d="M149,958 L316,329 L773,121 z" fill="none" stroke="black" stroke-width="2"/>
<path d="M172,839 L536,346 L607,537 z" fill="none" stroke="black" stroke-width="2"/>
<path d="M292,661 L178,163 L834,322 z" fill="none" stroke="black" stroke-width="2"/>
<path d="M720,918 L324,719 L324,475 z" fill="none" stroke="black" stroke-width="2"/>
<path d="M974,591 L76,896 L810,839 z" fill="none" stroke="black" stroke-width="2"/>
<path d="M320,973 L264,832 L665,274 z" fill="none" stroke="black" stroke-width="2"/>
<path d="M371,153 L974,360 L103,473 z" fill="none" stroke="black" stroke-width="2"/>
<path d="M825,423 L696,479 L995,753 z" fill="none" stroke="black" stroke-width="2"/>
<path d="M621,774 L273,220 L111,956 z" fill="none" stroke="black" stroke-width="2"/>
<path d="M798,160 L111,659 L500,3 z" fill="none" stroke="black" stroke-width="2"/>
<path d="M439,841 L877,955 L171,419 z" fill="none" stroke="black" stroke-width="2"/>
<path d="M123,933 L100,169 L21,201 z" fill="none" stroke="black" stroke-width="2"/>
<path d="M913,201 L28,59 L684,177 z" fill="none" stroke="black" stroke-width="2"/>
<path d="M529,207 L105,646 L698,261 z" fill="none" stroke="black" stroke-width="2"/>
<path d="M95,380 L314,501 L31,686 z" fill="none" stroke="black" stroke-width="2"/>
<path d="M541,827 L88,451 L374,541 z" fill="none" stroke="black" stroke-width="2"/>
<path d="M412,538 L585,594 L884,599 z" fill="none" stroke="black" stroke-width="2"/>
<path d="M769,949 L757,856 L249,58 z" fill="none" stroke="black" stroke-width="2"/>
<path d="M431,870 L176,419 L548,834 z" fill="none" stroke="black" stroke-width="2"/>
<path d="M460,1 L13,642 L953,998 z" fill="none" stroke="black" stroke-width="2"/>
<path d="M464,79 L152,216 L41,2 z" fill="none" stroke="black" stroke-width="2"/>
<path d="M827,382 L177,308 L374,496 z" fill="none" stroke="black" stroke-width="2"/>
<path d="M963,406 L178,90 L735,517 z" fill="none" stroke="black" stroke-width="2"/>
<path d="M664,86 L971,854 L158,212 z" fill="none" stroke="black" stroke-width="2"/>
<path d="M950,292 L364,622 L540,327 z" fill="none" stroke="black" stroke-width="2"/>
<path d="M124,629 L180,997 L788,168 z" fill="none" stroke="black" stroke-width="2"/>
<path d="M576,280 L787,836 L845,484 z" fill="none" stroke="black" stroke-width="2"/>
<path d="M664,139 L183,947 L365,238 z" fill="none" stroke="black" stroke-width="2"/>
<path d="M543,385 L248,965 L386,741 z" fill="none" stroke="black" stroke-width="2"/>
<path d="M650,287 L564,273 L638,122 z" fill="none" stroke="black" stroke-width="2"/>
<path d="M120,77 L670,197 L159,235 z" fill="none" stroke="black" stroke-width="2"/>
<path d="M765,308 L781,45 L227,278 z" fill="none" stroke="black" stroke-width="2"/>
<path d="M726,425 L409,144 L45,874 z" fill="none" stroke="black" stroke-width="2"/>
<path d="M67,37 L943,438 L408,485 z" fill="none" stroke="black" stroke-width="2"/>
<path d="M213,758 L969,169 L869,331 z" fill="none" stroke="black" stroke-width="2"/>
<path d="M729,198 L587,946 L405,999 z" fill="none" stroke="black" stroke-width="2"/>
<path d="M358,763 L518,546 L925,937 z" fill="none" stroke="black" stroke-width="2"/>
<path d="M345,665 L682,124 L40,649 z" fill="none" stroke="black" stroke-width="2"/>
<path d="M477,539 L87,531 L850,41 z" fill="none" stroke="black" stroke-width="2"/>
<path d="M841,8 L918,836 L616,473 z" fill="none" stroke="black" stroke-width="2"/>
<path d="M460,442 L300,376 L486,50 z" fill="none" stroke="black" stroke-width="2"/>
<path d="M794,383 L604,339 L491,69 z" fill="none" stroke="black" stroke-width="2"/>
<path d="M63,359 L397,819 L347,344 z" fill="none" stroke="black" stroke-width="2"/>
<path d="M720,515 L911,11 L266,614 z" fill="none" stroke="black" stroke-width="2"/>
<path d="M559,719 L70,483 L616,891 z" fill="none" stroke="black" stroke-width="2"/>
<path d="M895,921 L226,348 L624,944 z" fill="none" stroke="black" stroke-width="2"/>
<path d="M28,595 L111,434 L0,589 z" fill="none" stroke="black" stroke-width="2"/>
<path d="M208,819 L506,60 L90,275 z" fill="none" stroke="black" stroke-width="2"/>
<path d="M732,318 L612,466 L358,151 z" fill="none" stroke="black" stroke-width="2"/>
<path d="M682,343 L623,370 L418,322 z" fill="none" stroke="black" stroke-width="2"/>
<path d="M11,761 L241,152 L366,316 z" fill="none" stroke="black" stroke-width="2"/>
<path d="M587,627 L810,842 L484,824 z" fill="none" stroke="black" stroke-width="2"/>
<path d="M84,998 L41,743 L299,128 z" fill="none" stroke="black" stroke-width="2"/>
<path d="M478,355 L260,63 L980,907 z" fill="none" stroke="black" stroke-width="2"/>
<path d="M802,637 L838,190 L353,579 z" fill="none" stroke="black" stroke-width="2"/>
<path d="M624,487 L275,150 L440,849 z" fill="none" stroke="black" stroke-width="2"/>
<path d="M640,464 L869,225 L238,351 z" fill="none" stroke="black" stroke-width="2"/>
<path d="M917,564 L362,51 L974,295 z" fill="none" stroke="black" stroke-width="2"/>
<path d="M278,861 L816,553 L730,664 z" fill="none" stroke="black" stroke-width="2"/>
<path d="M21,933 L500,515 L481,495 z" fill="none" stroke="black" stroke-width="2"/>
<path d="M83,383 L444,401 L199,64 z" fill="none" stroke="black" stroke-width="2"/>
<path d="M447,168 L390,323 L276,218 z" fill="none" stroke="black" stroke-width="2"/>
<path d="M860,161 L526,570 L330,45 z" fill="none" stroke="black" stroke-width="2"/>
<path d="M648,958 L242,159 L243,881 z" fill="none" stroke="black" stroke-width="2"/>
<path d="M340,260 L634,976 L673,233 z" fill="none" stroke="black" stroke-width="2"/>
<path d="M417,655 L412,936 L321,668 z" fill="none" stroke="black" stroke-width="2"/>
<path d="M145,48 L214,511 L81,617 z" fill="none" stroke="black" stroke-width="2"/>
<path d="M601,175 L451,752 L298,464 z" fill="none" stroke="black" stroke-width="2"/>
<path d="M329,175 L453,477 L982,300 z" fill="none" stroke="black" stroke-width="2"/>
<path d="M826,548 L45,216 L467,78 z" fill="none" stroke="black" stroke-width="2"/>
<path d="M828,687 L732,674 L74,691 z" fill="none" stroke="black" stroke-width="2"/>
<path d="M839,905 L203,284 L478,339 z" fill="none" stroke="black" stroke-width="2"/>
<path d="M537,350 L909,734 L291,269 z" fill="none" stroke="black" stroke-width="2"/>
<path d="M76,305 L139,264 L573,420 z" fill="none" stroke="black" stroke-width="2"/>
<path d="M144,514 L34,683 L658,247 z" fill="none" stroke="black" stroke-width="2"/>
<path d="M559,212 L722,240 L35,279 z" fill="none" stroke="black" stroke-width="2"/>
<path d="M378,612 L529,717 L513,243 z" fill="none" stroke="black" stroke-width="2"/>
<path d="M842,850 L102,317 L63,770 z" fill="none" stroke="black" stroke-width="2"/>
<path d="M568,433 L367,130 L8,934 z" fill="none" stroke="black" stroke-width="2"/>
<path d="M955,327 L227,896 L484,327 z" fill="none" stroke="black" stroke-width="2"/>
<path d="M77,281 L186,813 L242,439 z" fill="none" stroke="black" stroke-width="2"/>
<path d="M520,23 L451,730 L798,917 z" fill="none" stroke="black" stroke-width="2"/>
<path d="M490,79 L734,386 L720,299 z" fill="none" stroke="black" stroke-width="2"/>
<path d="M166,175 L952,808 L834,323 z" fill="none" stroke="black" stroke-width="2"/>
<path d="M259,426 L668,149 L654,106 z" fill="none" stroke="black" stroke-width="2"/>
<path d="M782,9 L265,321 L324,729 z" fill="none" stroke="black" stroke-width="2"/>
<path d="M152,203 L95,884 L89,721 z" fill="none" stroke="black" stroke-width="2"/>
<path d="M526,552 L18,111 L389,324 z" fill="none" stroke="black" stroke-width="2"/>
<path d="M184,138 L26,348 L133,616 z" fill="none" stroke="black" stroke-width="2"/>
<path d="M432,781 L30,789 L779,378 z" fill="none" stroke="black" stroke-width="2"/>
<path d="M795,177 L863,307 L368,396 z" fill="none" stroke="black" stroke-width="2"/>
<path d="M525,598 L218,746 L785,393 z" fill="none" stroke="black" stroke-width="2"/>
<path d="M440,879 L955,656 L454,937 z" fill="none" stroke="black" stroke-width="2"/>
<path d="M743,406 L391,178 L235,912 z" fill="none" stroke="black" stroke-width="2"/>
<path d="M845,394 L979,474 L65,544 z" fill="none" stroke="black" stroke-width="2"/>
<path d="M554,528 L276,588 L685,689 z" fill="none" stroke="black" stroke-width="2"/>
<path d="M385,328 L390,536 L350,873 z" fill="none" stroke="black" stroke-width="2"/>
</svg>