<svg height="10in" viewBox="0 0 1000 1000" width="10in" xmlns="http://www.w3.org/2000/svg">
<path d="M0,0 L155,85 L451,218 z" fill="none" stroke="black" stroke-width="2"/>
<path d="M0,0 L671,835 L463,543 z" fill="none" stroke="black" stroke-width="2"/>
<path d="M0,0 L794,744 L477,786 z" fill="none" stroke="black" stroke-width="2"/>
<path d="M0,0 L821,39 L622,29 z" fill="none" stroke="black" stroke-width="2"/>
<path d="M0,1 L812,752 L262,64 z" fill="none" stroke="black" stroke-width="2"/>
<path d="M0,0 L187,886 L569,916 z" fill="none" stroke="black" stroke-width="2"/>
<path d="M0,0 L832,96 L627,516 z" fill="none" stroke="black" stroke-width="2"/>
<path d="M0,0 L413,391 L221,426 z" fill="none" stroke="black" stroke-width="2"/>
<path d="M0,0 L405,663 L985,619 z" fill="none" stroke="black" stroke-width="2"/>
<path d="M0,1 L953,747 L82,381 z" fill="none" stroke="black" stroke-width="2"/>
<path d="M0,0 L395,120 L711,256 z" fill="none" stroke="black" stroke-width="2"/>
<path d="M0,0 L529,770 L389,913 z" fill="none" stroke="black" stroke-width="2"/>
<path d="M0,0 L233,51 L84,821 z" fill="none" stroke="black" stroke-width="2"/>
<path d="M0,0 L239,797 L381,658 z" fill="none" stroke="black" stroke-width="2"/>
<path d="M0,1 L900,295 L655,503 z" fill="none" stroke="black" stroke-width="2"/>
<path d="M0,0 L409,166 L844,722 z" fill="none" stroke="black" stroke-width="2"/>
<path d="M0,0 L373,389 L24,841 z" fill="none" stroke="black" stroke-width="2"/>
<path d="M0,0 L447,685 L363,360 z" fill="none" stroke="black" stroke-width="2"/>
<path d="M0,0 L445,965 L943,73 z" fill="none" stroke="black" stroke-width="2"/>
<path d="M0,1 L299,788 L494,316 z" fill="none" stroke="black" stroke-width="2"/>
<path d="M1,0 L280,411 L563,302 z" fill="none" stroke="black" stroke-width="2"/>
<path d="M1,0 L592,707 L533,967 z" fill="none" stroke="black" stroke-width="2"/>
<path d="M1,0 L86,745 L602,403 z" fill="none" stroke="black" stroke-width="2"/>
<path d="M1,0 L55,211 L603,334 z" fill="none" stroke="black" stroke-width="2"/>
<path d="M1,1 L336,90 L593,10 z" fill="none" stroke="black" stroke-width="2"/>
</svg>