<svg height="10in" viewBox="0 0 1000 1000" width="10in" xmlns="http://www.w3.org/2000/svg">
<path d="M0,0 L458,386 L687,568 z" fill="none" stroke="black" stroke-width="2"/>
<path d="M0,4 L279,196 L134,890 z" fill="none" stroke="black" stroke-width="2"/>
<path d="M0,8 L50,738 L952,155 z" fill="none" stroke="black" stroke-width="2"/>
<path d="M0,12 L724,899 L634,163 z" fill="none" stroke="black" stroke-width="2"/>
<path d="M0,16 L55,146 L664,550 z" fill="none" stroke="black" stroke-width="2"/>
<path d="M4,0 L729,830 L95,957 z" fill="none" stroke="black" stroke-width="2"/>
<path d="M4,4 L332,59 L603,570 z" fill="none" stroke="black" stroke-width="2"/>
<path d="M4,8 L627,350 L25,126 z" fill="none" stroke="black" stroke-width="2"/>
<path d="M4,12 L70,857 L528,933 z" fill="none" stroke="black" stroke-width="2"/>
<path d="M4,16 L979,983 L696,924 z" fill="none" stroke="black" stroke-width="2"/>
<path d="M8,0 L16,648 L560,594 z" fill="none" stroke="black" stroke-width="2"/>
<path d="M8,4 L313,356 L901,663 z" fill="none" stroke="black" stroke-width="2"/>
<path d="M8,8 L113,312 L723,393 z" fill="none" stroke="black" stroke-width="2"/>
<path d="M8,12 L866,272 L526,175 z" fill="none" stroke="black" stroke-width="2"/>
<path d="M8,16 L231,945 L250,663 z" fill="none" stroke="black" stroke-width="2"/>
<path d="M12,0 L596,641 L382,658 z" fill="none" stroke="black" stroke-width="2"/>
<path d="M12,4 L230,569 L56,996 z" fill="none" stroke="black" stroke-width="2"/>
<path d="M12,8 L832,566 L230,802 z" fill="none" stroke="black" stroke-width="2"/>
<path d="M12,12 L954,689 L725,631 z" fill="none" stroke="black" stroke-width="2"/>
<path d="M12,16 L602,545 L933,477 z" fill="none" stroke="black" stroke-width="2"/>
<path d="M16,0 L667,977 L737,665 z" fill="none" stroke="black" stroke-width="2"/>
<path d="M16,4 L644,796 L218,931 z" fill="none" stroke="black" stroke-width="2"/>
<path d="M16,8 L887,35 L273,570 z" fill="none" stroke="black" stroke-width="2"/>
<path d="M16,12 L541,945 L395,311 z" fill="none" stroke="black" stroke-width="2"/>
<path d="M16,16 L211,908 L450,890 z" fill="none" stroke="black" stroke-width="2"/>
</svg>