<svg height="10in" viewBox="0 0 1000 1000" width="10in" xmlns="http://www.w3.org/2000/svg">
<path d="M0,0 L976,696 L437,941 z" fill="none" stroke="black" stroke-width="2"/>
<path d="M0,0 L324,989 L256,520 z" fill="none" stroke="black" stroke-width="2"/>
<path d="M0,0 L757,863 L866,712 z" fill="none" stroke="black" stroke-width="2"/>
<path d="M0,0 L344,0 L15,377 z" fill="none" stroke="black" stroke-width="2"/>
<path d="M0,0 L604,941 L2,722 z" fill="none" stroke="black" stroke-width="2"/>
<path d="M0,0 L509,158 L487,203 z" fill="none" stroke="black" stroke-width="2"/>
<path d="M0,0 L464,957 L717,102 z" fill="none" stroke="black" stroke-width="2"/>
<path d="M0,0 L45,330 L75,146 z" fill="none" stroke="black" stroke-width="2"/>
<path d="M0,0 L392,208 L669,772 z" fill="none" stroke="black" stroke-width="2"/>
<path d="M0,0 L285,781 L857,765 z" fill="none" stroke="black" stroke-width="2"/>
<path d="M0,0 L250,752 L227,290 z" fill="none" stroke="black" stroke-width="2"/>
<path d="M0,0 L466,913 L124,559 z" fill="none" stroke="black" stroke-width="2"/>
<path d="M0,0 L655,906 L189,738 z" fill="none" stroke="black" stroke-width="2"/>
<path d="M0,0 L985,117 L863,706 z" fill="none" stroke="black" stroke-width="2"/>
<path d="M0,0 L426,744 L14,770 z" fill="none" stroke="black" stroke-width="2"/>
<path d="M0,0 L287,342 L635,272 z" fill="none" stroke="black" stroke-width="2"/>
<path d="M0,0 L779,998 L4,776 z" fill="none" stroke="black" stroke-width="2"/>
<path d="M0,0 L914,776 L301,799 z" fill="none" stroke="black" stroke-width="2"/>
<path d="M0,0 L42,444 L844,92 z" fill="none" stroke="black" stroke-width="2"/>
<path d="M0,0 L558,361 L959,57 z" fill="none" stroke="black" stroke-width="2"/>
<path d="M0,0 L192,692 L46,393 z" fill="none" stroke="black" stroke-width="2"/>
<path d="M0,0 L602,157 L668,895 z" fill="none" stroke="black" stroke-width="2"/>
<path d="M0,0 L379,775 L444,489 z" fill="none" stroke="black" stroke-width="2"/>
<path d="M0,0 L178,702 L844,552 z" fill="none" stroke="black" stroke-width="2"/>
<path d="M0,0 L912,932 L907,109 z" fill="none" stroke="black" stroke-width="2"/>
</svg>