<svg height="10in" viewBox="0 0 1000 1000" width="10in" xmlns="http://www.w3.org/2000/svg">
<path d="M0,0 L14,832 L730,475 z" fill="none" stroke="black" stroke-width="2"/>
<path d="M0,4 L599,10 L105,58 z" fill="none" stroke="black" stroke-width="2"/>
<path d="M0,8 L513,587 L819,287 z" fill="none" stroke="black" stroke-width="2"/>
<path d="M0,12 L37,290 L65,832 z" fill="none" stroke="black" stroke-width="2"/>
<path d="M0,16 L783,417 L158,228 z" fill="none" stroke="black" stroke-width="2"/>
<path d="M4,0 L253,870 L830,708 z" fill="none" stroke="black" stroke-width="2"/>
<path d="M4,4 L290,252 L266,254 z" fill="none" stroke="black" stroke-width="2"/>
<path d="M4,8 L409,62 L538,366 z" fill="none" stroke="black" stroke-width="2"/>
<path d="M4,12 L993,135 L200,185 z" fill="none" stroke="black" stroke-width="2"/>
<path d="M4,16 L423,864 L177,416 z" fill="none" stroke="black" stroke-width="2"/>
<path d="M8,0 L109,342 L374,423 z" fill="none" stroke="black" stroke-width="2"/>
<path d="M8,4 L637,838 L999,328 z" fill="none" stroke="black" stroke-width="2"/>
<path d="M8,8 L54,816 L984,332 z" fill="none" stroke="black" stroke-width="2"/>
<path d="M8,12 L669,160 L237,554 z" fill="none" stroke="black" stroke-width="2"/>
<path d="M8,16 L463,553 L90,679 z" fill="none" stroke="black" stroke-width="2"/>
<path d="M12,0 L923,10 L409,992 z" fill="none" stroke="black" stroke-width="2"/>
<path d="M12,4 L309,121 L745,81 z" fill="none" stroke="black" stroke-width="2"/>
<path d="M12,8 L618,608 L930,916 z" fill="none" stroke="black" stroke-width="2"/>
<path d="M12,12 L592,2 L489,795 z" fill="none" stroke="black" stroke-width="2"/>
<path d="M12,16 L824,90 L188,38 z" fill="none" stroke="black" stroke-width="2"/>
<path d="M16,0 L382,80 L251,97 z" fill="none" stroke="black" stroke-width="2"/>
<path d="M16,4 L751,160 L791,385 z" fill="none" stroke="black" stroke-width="2"/>
<path d="M16,8 L410,918 L715,858 z" fill="none" stroke="black" stroke-width="2"/>
<path d="M16,12 L128,227 L624,419 z" fill="none" stroke="black" stroke-width="2"/>
<path d="M16,16 L42,180 L747,237 z" fill="none" stroke="black" stroke-width="2"/>
</svg>