<svg height="10in" viewBox="0 0 1000 1000" width="10in" xmlns="http://www.w3.org/2000/svg">
<path d="M0,0 L363,234 L942,271 z" fill="none" stroke="black" stroke-width="2"/>
<path d="M0,0 L964,279 L535,916 z" fill="none" stroke="black" stroke-width="2"/>
<path d="M0,0 L922,180 L266,85 z" fill="none" stroke="black" stroke-width="2"/>
<path d="M0,0 L183,871 L811,588 z" fill="none" stroke="black" stroke-width="2"/>
<path d="M0,10 L139,130 L495,501 z" fill="none" stroke="black" stroke-width="2"/>
<path d="M0,0 L120,187 L122,333 z" fill="none" stroke="black" stroke-width="2"/>
<path d="M0,0 L929,445 L587,552 z" fill="none" stroke="black" stroke-width="2"/>
<path d="M0,0 L119,566 L837,917 z" fill="none" stroke="black" stroke-width="2"/>
<path d="M0,0 L259,460 L158,856 z" fill="none" stroke="black" stroke-width="2"/>
<path d="M0,10 L386,647 L797,214 z" fill="none" stroke="black" stroke-width="2"/>
<path d="M0,0 L159,320 L502,487 z" fill="none" stroke="black" stroke-width="2"/>
<path d="M0,0 L368,604 L129,445 z" fill="none" stroke="black" stroke-width="2"/>
<path d="M0,0 L675,569 L432,333 z" fill="none" stroke="black" stroke-width="2"/>
<path d="M0,0 L63,101 L819,458 z" fill="none" stroke="black" stroke-width="2"/>
<path d="M0,10 L335,472 L534,814 z" fill="none" stroke="black" stroke-width="2"/>
<path d="M0,0 L185,593 L596,242 z" fill="none" stroke="black" stroke-width="2"/>
<path d="M0,0 L427,945 L327,210 z" fill="none" stroke="black" stroke-width="2"/>
<path d="M0,0 L441,256 L911,747 z" fill="none" stroke="black" stroke-width="2"/>
<path d="M0,0 L502,970 L291,568 z" fill="none" stroke="black" stroke-width="2"/>
<path d="M0,10 L732,868 L156,891 z" fill="none" stroke="black" stroke-width="2"/>
<path d="M10,0 L593,936 L170,149 z" fill="none" stroke="black" stroke-width="2"/>
<path d="M10,0 L578,203 L109,648 z" fill="none" stroke="black" stroke-width="2"/>
<path d="M10,0 L170,447 L603,595 z" fill="none" stroke="black" stroke-width="2"/>
<path d="M10,0 L918,951 L944,359 z" fill="none" stroke="black" stroke-width="2"/>
<path d="M10,10 L455,405 L182,623 z" fill="none" stroke="black" stroke-width="2"/>
</svg>